<?xml version="1.0" encoding="utf-8"?>
<!-- Generator: Adobe Illustrator 28.0.0, SVG Export Plug-In . SVG Version: 6.00 Build 0)  -->
<svg version="1.1" id="Слой_1" xmlns="http://www.w3.org/2000/svg" xmlns:xlink="http://www.w3.org/1999/xlink" x="0px" y="0px"
	 viewBox="0 0 800 800" style="enable-background:new 0 0 800 800;" xml:space="preserve">
<style type="text/css">
	.st0{fill:#FFFFFF;}
</style>
<g id="_xD83D__xDD0D_-System-Icons">
	<g id="ic_fluent_calculator_20_regular">
		<path id="Shape" class="st0" d="M575,0c69,0,125,56,125,125v550c0,69-56,125-125,125H225c-69,0-125-56-125-125V125
			C100,56,156,0,225,0H575z M575,50H225c-41.4,0-75,33.6-75,75v550c0,41.4,33.6,75,75,75h350c41.4,0,75-33.6,75-75V125
			C650,83.6,616.4,50,575,50z M250,550c27.6,0,50,22.4,50,50s-22.4,50-50,50s-50-22.4-50-50S222.4,550,250,550z M550,550
			c27.6,0,50,22.4,50,50s-22.4,50-50,50s-50-22.4-50-50S522.4,550,550,550z M400,550c27.6,0,50,22.4,50,50s-22.4,50-50,50
			c-27.6,0-50-22.4-50-50S372.4,550,400,550z M250,400c27.6,0,50,22.4,50,50s-22.4,50-50,50s-50-22.4-50-50S222.4,400,250,400z
			 M550,400c27.6,0,50,22.4,50,50s-22.4,50-50,50s-50-22.4-50-50S522.4,400,550,400z M400,400c27.6,0,50,22.4,50,50s-22.4,50-50,50
			c-27.6,0-50-22.4-50-50S372.4,400,400,400z M525,100c39,0,71,29.7,74.7,67.8l0.3,7.2v50c0,39-29.7,71-67.8,74.7L525,300H275
			c-39,0-71-29.7-74.7-67.8L200,225v-50c0-39,29.7-71,67.8-74.7l7.2-0.3H525z M525,150H275c-12.3,0-22.5,8.8-24.6,20.5L250,175v50
			c0,12.3,8.8,22.5,20.5,24.6l4.5,0.4h250c12.3,0,22.5-8.8,24.6-20.5l0.4-4.5v-50c0-12.3-8.8-22.5-20.5-24.6L525,150z"/>
	</g>
</g>
</svg>
