<?xml version="1.0" encoding="utf-8"?>
<!-- Generator: Adobe Illustrator 26.0.2, SVG Export Plug-In . SVG Version: 6.00 Build 0)  -->
<svg version="1.1" id="Слой_1" xmlns="http://www.w3.org/2000/svg" xmlns:xlink="http://www.w3.org/1999/xlink" x="0px" y="0px"
	 viewBox="0 0 1000 1000" style="enable-background:new 0 0 1000 1000;" xml:space="preserve" fill="#333333">
		<path d="M549.3,501.3c63.1-46.6,101.7-122,101.7-202.5C651,161,539.6,49.2,402.3,49.2c-136.9,0-248.7,111-248.7,247.9
			c0,80.5,38.1,153.8,101.7,200C106.1,557.2,1,714,1,881.8c0,21.6,1.7,30.9,5.1,69.1h793.2c3-38.1,5.1-47.5,5.1-69.1
			C804,713.6,701,561,549.3,501.3z M764.1,913.1H40.8c-0.8-38.1-1.3-21.6-1.3-30.9c0-165.7,111.9-317.8,266.5-360.2l48.3-14
			l-44.9-22.5c-72-36-116.9-108.1-116.9-188.1c0-115.7,94.1-209.7,210.2-209.7s210.2,94.9,210.2,211.4
			c0,80.5-45.8,155.1-116.9,190.7l-44.9,22l48.3,13.1c156.8,43.2,266.5,191.5,266.5,357.2C765.4,891.1,765,875,764.1,913.1z
			 M770.5,468.6c56.8-39.4,91.9-103,91.9-170.8c0-116.1-100.8-210.6-225-210.6c-10.6,0-20.8,0.8-30.9,2.1
			c10.2,9.3,19.5,19.5,28,30.5c0.8,0,2.1-0.4,3-0.4c105.1,0,190.3,80.1,190.3,178.4c0,67.8-41.5,130.9-105.9,160.6l-40.7,18.6
			l43.6,11c141.9,36.4,241.1,152.5,241.1,291.9c0,8.1-0.4-20.3-1.3,17.4H837.4c1.3,0,2.1,38.1,2.5,38.1h156.8
			c3-38.1,4.2-34.3,4.2-52.5C1001,641.5,907.8,519.1,770.5,468.6z"/>
		<path d="M549.3,501.3c63.1-46.6,101.7-122,101.7-202.5C651,161,539.6,49.2,402.3,49.2c-136.9,0-248.7,111-248.7,247.9
			c0,80.5,38.1,153.8,101.7,200C106.1,557.2,1,714,1,881.8c0,21.6,1.7,30.9,5.1,69.1h793.2c3-38.1,5.1-47.5,5.1-69.1
			C804,713.6,701,561,549.3,501.3z M764.1,913.1H40.8c-0.8-38.1-1.3-21.6-1.3-30.9c0-165.7,111.9-317.8,266.5-360.2l48.3-14
			l-44.9-22.5c-72-36-116.9-108.1-116.9-188.1c0-115.7,94.1-209.7,210.2-209.7s210.2,94.9,210.2,211.4
			c0,80.5-45.8,155.1-116.9,190.7l-44.9,22l48.3,13.1c156.8,43.2,266.5,191.5,266.5,357.2C765.4,891.1,765,875,764.1,913.1z
			 M770.5,468.6c56.8-39.4,91.9-103,91.9-170.8c0-116.1-100.8-210.6-225-210.6c-10.6,0-20.8,0.8-30.9,2.1
			c10.2,9.3,19.5,19.5,28,30.5c0.8,0,2.1-0.4,3-0.4c105.1,0,190.3,80.1,190.3,178.4c0,67.8-41.5,130.9-105.9,160.6l-40.7,18.6
			l43.6,11c141.9,36.4,241.1,152.5,241.1,291.9c0,8.1-0.4-20.3-1.3,17.4H837.4c1.3,0,2.1,38.1,2.5,38.1h156.8
			c3-38.1,4.2-34.3,4.2-52.5C1001,641.5,907.8,519.1,770.5,468.6z"/>
</svg>
