<?xml version="1.0" encoding="utf-8"?>
<!-- Generator: Adobe Illustrator 28.0.0, SVG Export Plug-In . SVG Version: 6.00 Build 0)  -->
<svg version="1.1" id="Capa_1" xmlns="http://www.w3.org/2000/svg" xmlns:xlink="http://www.w3.org/1999/xlink" x="0px" y="0px"
	 viewBox="0 0 1000 1000" fill="#FFFFFF" xml:space="preserve">
<g>
	<g>
		<path d="M971.9,237h-54.4v-3c0-11.8-7.4-22.3-18.4-26.4C831.7,183,763,170.5,694.7,170.5c-65,0-130.5,11.3-194.7,33.7
			c-64.3-22.3-129.7-33.7-194.7-33.7c-68.2,0-137,12.5-204.4,37.1c-11.1,4-18.4,14.6-18.4,26.4v3H28.1C12.6,237,0,249.6,0,265.1
			v536.3c0,15.5,12.6,28.1,28.1,28.1h943.8c15.5,0,28.1-12.6,28.1-28.1V265.1C1000,249.6,987.4,237,971.9,237z M861.4,254v422.6
			C806.2,660.2,750.3,652,694.7,652c-55.5,0-111.4,8.3-166.6,24.6V254c55.2-18.1,111.2-27.3,166.6-27.3
			C750.2,226.7,806.2,235.9,861.4,254z M138.6,254c55.2-18.1,111.2-27.3,166.6-27.3s111.4,9.2,166.6,27.3v422.6
			C416.7,660.2,360.8,652,305.3,652c-55.5,0-111.4,8.3-166.6,24.6L138.6,254L138.6,254z M56.2,293.2h26.3v422.3
			c0,9.2,4.5,17.8,12,23c4.8,3.3,10.4,5.1,16.1,5.1c3.2,0,6.5-0.6,9.6-1.7c61.2-22.4,123.4-33.7,185.1-33.7
			c55.5,0,111.4,9.2,166.7,27.3v37.9H56.2L56.2,293.2L56.2,293.2z M943.8,773.3H528.1v-37.9c55.2-18.1,111.2-27.3,166.6-27.3
			c61.6,0,123.9,11.3,185.1,33.7c8.6,3.1,18.2,1.9,25.7-3.4c7.5-5.3,12-13.8,12-23V293.2h26.3V773.3z"/>
		<path d="M223.6,386.5h146.8c15.5,0,28.1-12.6,28.1-28.1s-12.6-28.1-28.1-28.1H223.6c-15.5,0-28.1,12.6-28.1,28.1
			S208.1,386.5,223.6,386.5z"/>
		<path d="M398.5,515.7c0-15.5-12.6-28.1-28.1-28.1H223.6c-15.5,0-28.1,12.6-28.1,28.1c0,15.5,12.6,28.1,28.1,28.1h146.8
			C385.9,543.8,398.5,531.2,398.5,515.7z"/>
		<path d="M629.6,386.5h146.8c15.5,0,28.1-12.6,28.1-28.1s-12.6-28.1-28.1-28.1H629.6c-15.5,0-28.1,12.6-28.1,28.1
			S614.1,386.5,629.6,386.5z"/>
		<path d="M629.6,543.8h146.8c15.5,0,28.1-12.6,28.1-28.1c0-15.5-12.6-28.1-28.1-28.1H629.6c-15.5,0-28.1,12.6-28.1,28.1
			C601.5,531.2,614.1,543.8,629.6,543.8z"/>
	</g>
</g>
</svg>
