<?xml version="1.0" encoding="utf-8"?>
<!-- Generator: Adobe Illustrator 28.0.0, SVG Export Plug-In . SVG Version: 6.00 Build 0)  -->
<svg version="1.1" id="Слой_1" xmlns="http://www.w3.org/2000/svg" xmlns:xlink="http://www.w3.org/1999/xlink" x="0px" y="0px"
	 viewBox="0 0 1000 325" style="enable-background:new 0 0 1000 325;" xml:space="preserve">
<style type="text/css">
	.st0{fill:#02A0E2;}
	.st1{fill:#244183;}
</style>
<g>
	<path class="st0" d="M204.57,0.19c4.68,3.9,8.92,8.27,13.12,12.67c5.84,6.11,11.69,12.21,17.55,18.29c1.03,1.07,2.13,2.06,3.18,3.1
		c0.65,0.65,1.4,0.99,2.34,0.92c0.61-0.04,1.22-0.01,1.83-0.01c13.86,0,27.71,0,41.57-0.01c0.78,0,1.57-0.01,2.35,0.01
		c1.02,0.04,1.16,0.19,1.2,1.27c0.02,0.7,0.01,1.39,0.01,2.09c0,13.59,0.01,27.17,0.01,40.76c0,0.44,0.04,0.88-0.01,1.31
		c-0.15,1.4,0.31,2.45,1.34,3.46c2.8,2.75,5.48,5.61,8.21,8.42c7.9,8.12,15.8,16.23,23.7,24.35c1.68,1.73,1.71,1.55,0.07,3.25
		c-7.87,8.14-15.74,16.29-23.61,24.43c-2.6,2.69-5.15,5.44-7.82,8.07c-1.08,1.07-1.45,2.19-1.45,3.69
		c0.02,13.76-0.01,27.52-0.08,41.28c-0.01,1.26,0.6,2.83-0.42,3.73c-0.88,0.77-2.35,0.3-3.56,0.35c-3.05,0.12-6.1,0.15-9.15,0.18
		c-10.63,0.11-21.26,0.19-31.89,0.3c-3.95,0.04-3.94,0.06-6.8,2.87c-9.94,9.77-19.89,19.54-29.83,29.3c-0.5,0.49-1,0.97-1.53,1.42
		c-0.21,0.18-0.5,0.2-0.72,0.01c-0.46-0.4-0.91-0.81-1.34-1.23c-7.74-7.53-15.48-15.07-23.22-22.61c-3.06-2.98-6.18-5.89-9.16-8.95
		c-1.15-1.18-2.34-1.53-3.92-1.53c-14.03,0.03-28.06,0-42.09-0.02c-0.78,0-1.57-0.02-2.35-0.06c-0.39-0.02-0.63-0.29-0.66-0.67
		c-0.05-0.69-0.07-1.39-0.07-2.08c-0.03-5.75-0.04-11.5-0.08-17.24c-0.07-8.88-0.2-17.77-0.21-26.65c0-1.46-0.52-2.43-1.5-3.4
		c-10.27-10.18-20.52-20.39-30.77-30.59c-0.67-0.67-1.34-1.35-1.98-2c0.37-1.1,1.21-1.64,1.87-2.3
		c10.05-10.04,20.11-20.05,30.16-30.09c2.53-2.53,2.07-1.51,2.08-4.96c0.06-14.2,0.1-28.39,0.14-42.59c0-0.61-0.01-1.22,0.01-1.83
		c0.05-1.66,0.1-1.74,1.8-1.75c5.84-0.04,11.68-0.04,17.52-0.09c9.24-0.07,18.47-0.19,27.71-0.22c1.35,0,2.25-0.45,3.16-1.41
		c7.02-7.39,14.07-14.75,21.18-22.05c3.64-3.74,7.28-7.51,11.41-10.74c0.11-0.09,0.12-0.3,0.18-0.45
		C204.23,0.19,204.4,0.19,204.57,0.19z M204.34,48.26c-0.86,0.31-1.38,1.05-2,1.64c-6.06,5.76-12.13,11.51-18.14,17.32
		c-1.09,1.05-2.19,1.47-3.69,1.46c-7.58-0.06-15.16-0.03-22.74-0.02c-0.7,0-1.39,0.01-2.09,0.04c-0.51,0.02-0.79,0.32-0.81,0.82
		c-0.03,0.69-0.04,1.39-0.04,2.09c0,7.92-0.05,15.85,0.04,23.77c0.02,1.72-0.53,2.9-1.75,4.08c-5.93,5.77-11.79,11.61-17.66,17.44
		c-0.53,0.52-1.24,0.94-1.43,2.03c0.52,0.45,1.13,0.93,1.7,1.47c5.72,5.48,11.44,10.97,17.15,16.47c2.37,2.28,1.93,1.55,1.94,4.48
		c0.02,8.18,0.01,16.37,0.01,24.55c0,2.71-0.05,2.52,2.6,2.52c7.93,0,15.85-0.01,23.78,0c2.95,0.01,2.17-0.27,4.31,1.79
		c5.64,5.44,11.27,10.9,16.91,16.34c0.61,0.59,1.12,1.33,1.99,1.63c0.95-0.35,1.54-1.14,2.22-1.79c5.75-5.45,11.53-10.88,17.21-16.4
		c1.23-1.19,2.48-1.64,4.16-1.62c7.93,0.07,15.85,0.03,23.78,0.02c0.7,0,1.39-0.01,2.09-0.04c0.5-0.02,0.8-0.33,0.83-0.82
		c0.04-0.69,0.04-1.39,0.04-2.09c0.02-7.14,0.07-14.28,0.03-21.42c-0.01-1.48,0.39-2.63,1.38-3.76c5.66-6.5,11.26-13.05,16.88-19.59
		c0.45-0.53,0.89-1.07,1.34-1.6c0.34-0.4,0.29-0.8-0.03-1.16c-0.47-0.52-0.96-1.01-1.45-1.51c-5.51-5.69-10.99-11.42-16.57-17.05
		c-1.15-1.16-1.57-2.31-1.55-3.91c0.08-8.1,0.04-16.19,0.05-24.29c0-2.54,0.09-2.45-2.39-2.45c-8.19,0-16.38-0.05-24.57,0.01
		c-1.43,0.01-2.44-0.44-3.44-1.41c-6-5.82-12.05-11.59-18.09-17.37C205.72,49.31,205.2,48.57,204.34,48.26z"/>
	<path class="st1" d="M1000,99.5c-18.65,0.02-37.3,0.03-55.95,0.05c-1.48,0-2.96-0.01-4.44,0.02c-1.01,0.02-1.16,0.2-1.2,1.28
		c-0.03,0.78-0.01,1.57-0.01,2.35c-0.07,56.18-0.15,112.36-0.22,168.54c0,0.78,0,1.57-0.02,2.35c-0.02,0.63-0.4,0.92-1.01,0.94
		c-0.44,0.01-0.87,0.01-1.31,0.01c-12.55,0-25.1,0-37.65,0c-2.43,0-2.41,0.15-2.4-2.45c0.01-14.72,0-29.44,0-44.16
		c0-41.81,0-83.61,0-125.42c0-0.87-0.01-1.74-0.02-2.61c-0.01-0.64-0.38-0.93-0.98-0.95c-0.7-0.02-1.39-0.02-2.09-0.03
		c-18.91-0.14-37.82-0.29-56.73-0.43c-2.68-0.02-2.62,0.18-2.65-2.5c-0.1-10.28-0.21-20.55-0.32-30.83c0-0.26-0.02-0.52,0-0.78
		c0.04-0.96,0.26-1.17,1.28-1.21c0.78-0.03,1.57-0.01,2.35-0.01c53.34,0,106.67,0,160.01-0.01c1.12,0,2.26,0.19,3.37-0.2
		C1000,75.45,1000,87.47,1000,99.5z"/>
	<path class="st1" d="M587.75,124.82c-6.44,0.27-12.88,0.56-19.33,0.81c-1.5,0.06-1.52,0.02-1.98-1.47
		c-0.72-2.33-1.41-4.66-2.12-6.99c-2.23-7.35-6.73-12.88-13.35-16.73c-4.66-2.71-9.73-4.24-15.03-5
		c-8.95-1.28-17.73-0.37-26.28,2.53c-3.65,1.24-7.08,2.92-10.17,5.25c-1.82,1.37-3.45,2.93-4.75,4.82
		c-2.79,4.06-3.25,8.37-1.31,12.89c1.48,3.43,3.76,6.25,6.76,8.49c2.88,2.16,6.07,3.75,9.39,5.09c5.5,2.22,11.21,3.8,16.95,5.23
		c8.53,2.12,17.09,4.12,25.6,6.32c8.27,2.14,16.38,4.77,24.18,8.29c7.26,3.28,14.07,7.3,20.03,12.64
		c10.1,9.04,16.37,20.25,18.63,33.6c1.68,9.95,0.79,19.79-2.18,29.43c-2.9,9.43-7.51,17.97-13.7,25.64
		c-2.31,2.87-5.13,5.21-8.05,7.42c-7.58,5.76-16.05,9.75-25.1,12.55c-6.84,2.12-13.83,3.51-20.94,4.3
		c-6.07,0.68-12.16,1.03-18.26,0.85c-12.25-0.34-24.26-2.11-36.01-5.7c-11.21-3.42-20.27-9.86-27.44-19.06
		c-5.4-6.94-9.32-14.67-12.4-22.87c-3.04-8.09-5.1-16.44-6.69-24.92c-0.05-0.26-0.07-0.52-0.1-0.78c-0.09-0.66,0.26-0.95,0.86-1.05
		c0.52-0.08,1.03-0.17,1.55-0.23c8.4-0.94,16.79-1.87,25.19-2.82c3.72-0.42,7.44-0.89,11.15-1.33c0.43-0.05,0.87-0.06,1.3-0.11
		c0.7-0.08,1.11,0.2,1.4,0.86c1.02,2.31,1.79,4.71,2.47,7.15c0.68,2.43,1.35,4.86,2.06,7.28c2.8,9.56,9.04,16.1,17.97,20.22
		c4.78,2.21,9.86,3.41,15.05,4.18c4.5,0.66,9.03,0.77,13.56,0.52c6.48-0.36,12.78-1.58,18.78-4.15c3.88-1.66,7.42-3.84,10.39-6.88
		c4.13-4.24,6.35-9.3,6.51-15.23c0.06-2.26-0.01-4.52-0.5-6.75c-0.76-3.51-2.41-6.5-4.89-9.07c-1.96-2.02-4.23-3.62-6.68-4.98
		c-4.51-2.52-9.35-4.22-14.28-5.7c-7.42-2.24-14.99-3.9-22.51-5.75c-8.96-2.2-17.89-4.5-26.55-7.74c-6.13-2.3-12.05-5.02-17.62-8.49
		c-9.69-6.03-17.29-13.97-22.44-24.21c-4.25-8.45-6.14-17.37-5.36-26.8c0.62-7.51,2.43-14.77,5.49-21.67
		c3.51-7.91,9.01-14.22,15.96-19.32c6.82-5.01,14.41-8.42,22.47-10.86c7.53-2.28,15.23-3.62,23.06-4.35
		c6.53-0.6,13.06-0.61,19.59-0.35c17.8,0.72,34,6.13,48.36,16.76c5,3.7,9.45,7.98,13.21,12.95c5.03,6.65,8.38,14.02,9.45,22.34
		c0.44,3.39,0.41,6.78,0.07,10.17c-0.18,1.79-0.32,1.86-2.08,1.93c-5.22,0.22-10.45,0.43-15.67,0.62c-1.22,0.05-2.44,0.01-3.66,0.01
		C587.75,124.69,587.75,124.75,587.75,124.82z"/>
	<path class="st1" d="M652.06,169.32c0-34.06,0-68.11,0-102.17c0-3.66-0.41-3.2,3.18-3.2c49.59,0,99.18,0.02,148.77,0.04
		c3.78,0,3.37-0.47,3.36,3.3c-0.01,9.58-0.05,19.16-0.08,28.74c0,0.61,0.01,1.22-0.01,1.83c-0.05,1.29-0.2,1.43-1.57,1.47
		c-0.7,0.02-1.39,0.01-2.09,0.01c-35.3,0.08-70.59,0.17-105.89,0.25c-0.78,0-1.57,0.01-2.35,0.03c-0.64,0.01-0.93,0.39-0.95,0.99
		c-0.02,0.52-0.02,1.04-0.02,1.57c0.02,13.76,0.05,27.52,0.07,41.29c0.01,2.89-0.22,2.6,2.72,2.62c32.94,0.17,65.88,0.33,98.83,0.51
		c3.85,0.02,3.49-0.55,3.47,3.47c-0.04,9.84-0.11,19.68-0.16,29.53c0,0.52,0.01,1.05-0.02,1.57c-0.05,0.96-0.24,1.15-1.3,1.19
		c-0.78,0.03-1.57,0.03-2.35,0.03c-32.51,0.14-65.01,0.26-97.52,0.42c-4.28,0.02-3.68-0.57-3.66,3.78
		c0.06,12.37,0.14,24.74,0.23,37.1c0.03,4.53,0.12,9.06,0.19,13.59c0.01,0.44-0.01,0.88,0.05,1.3c0.07,0.47,0.35,0.79,0.87,0.8
		c0.87,0.02,1.74,0.04,2.61,0.04c35.12,0.12,70.24,0.24,105.36,0.38c1.19,0,2.69-0.53,3.5,0.41c0.69,0.8,0.23,2.18,0.23,3.31
		c-0.03,9.49-0.08,18.99-0.13,28.48c-0.02,3.45,0.36,3.13-3.03,3.12c-25.8-0.05-51.59-0.09-77.39-0.17
		c-23.97-0.07-47.93-0.17-71.9-0.27c-3.29-0.01-2.93,0.35-2.94-2.92c-0.01-34.14,0-68.29,0-102.43
		C652.13,169.32,652.09,169.32,652.06,169.32z"/>
	<path class="st1" d="M291.67,324.81c-0.92-0.37-1.47-1.19-2.13-1.85c-10.13-10.08-20.24-20.17-30.38-30.25
		c-2.41-2.4-1.39-1.97-4.73-1.99c-14.38-0.06-28.76-0.09-43.14-0.13c-3.07-0.01-2.88,0.14-2.86-2.81
		c0.09-14.89,0.18-29.79,0.24-44.68c0-1.28,0.23-2.28,1.22-3.24c6.94-6.73,13.82-13.53,20.72-20.31c0.25-0.24,0.5-0.48,0.78-0.69
		c0.23-0.18,0.5-0.15,0.71,0.03c0.33,0.28,0.65,0.58,0.95,0.89c2.33,2.35,4.61,4.75,7.01,7.03c0.98,0.93,1.3,1.92,1.31,3.22
		c0.07,8.19,0.22,16.37,0.33,24.56c0.04,2.63-0.15,2.6,2.54,2.61c8.11,0.04,16.21,0.11,24.31,0.1c1.49,0,2.66,0.37,3.73,1.44
		c3.63,3.63,7.34,7.19,11,10.81c2.42,2.39,4.77,4.84,7.18,7.24c0.85,0.85,1.02,0.85,1.92-0.03c4.62-4.5,9.22-9.01,13.83-13.52
		c1.62-1.58,3.29-3.12,4.84-4.77c0.92-0.99,1.9-1.32,3.23-1.3c7.49,0.06,14.99,0.05,22.48,0.06c1.39,0,2.79,0,4.18-0.01
		c0.62-0.01,0.96-0.35,0.99-0.96c0.03-0.7,0.03-1.39,0.04-2.09c0.05-7.75,0.14-15.5,0.13-23.26c0-1.42,0.45-2.44,1.41-3.45
		c5.64-5.94,11.23-11.92,16.83-17.9c0.48-0.51,0.96-1.01,1.42-1.53c0.33-0.37,0.38-0.76,0.02-1.15c-0.48-0.51-0.96-1.01-1.44-1.51
		c-5.52-5.69-11.05-11.38-16.55-17.08c-2.03-2.1-1.71-1.21-1.71-4.33c-0.02-7.84,0.01-15.68,0-23.52c-0.01-3.94,0.49-3.35-3.52-3.42
		c-7.93-0.15-15.86-0.29-23.79-0.36c-1.42-0.01-2.46-0.44-3.46-1.41c-2.74-2.67-5.56-5.27-8.41-7.94c0.23-0.35,0.38-0.67,0.61-0.91
		c6.18-6.39,12.35-12.79,18.74-18.96c3.07-2.97,3.09-2.95,7.3-2.98c14.12-0.11,28.24-0.23,42.35-0.32c3.06-0.02,2.92-0.43,2.93,2.98
		c0.07,14.2,0.14,28.39,0.21,42.59c0,0.61,0.04,1.22,0,1.83c-0.06,0.85,0.25,1.51,0.87,2.08c0.45,0.41,0.86,0.87,1.29,1.3
		c9.99,10.22,19.98,20.43,29.97,30.65c0.49,0.5,0.95,1.01,1.42,1.53c0.19,0.21,0.19,0.49,0,0.69c-0.53,0.58-1.06,1.15-1.62,1.7
		c-10.05,9.91-20.12,19.8-30.16,29.72c-2.63,2.6-2.12,1.55-2.12,5.19c-0.01,14.46,0.01,28.92,0.02,43.38c0,3.35,0.24,2.96-2.91,2.99
		c-14.29,0.13-28.58,0.25-42.88,0.37c-0.26,0-0.53,0.04-0.78,0c-1.6-0.22-2.76,0.41-3.9,1.56c-5.26,5.34-10.61,10.58-15.93,15.86
		c-4.89,4.85-9.77,9.7-14.66,14.54C293.04,323.69,292.52,324.42,291.67,324.81z"/>
	<path class="st1" d="M117.68,277.86c0.76-0.9,1.33-1.68,2-2.36c5.1-5.12,10.2-10.25,15.35-15.33c2.91-2.87,2.95-2.82,7.08-2.84
		c7.32-0.04,14.64-0.08,21.96-0.12c0.7,0,1.39-0.02,2.09-0.04c0.51-0.02,0.81-0.32,0.85-0.8c0.05-0.61,0.04-1.22,0.05-1.83
		c0.12-8.1,0.27-16.2,0.34-24.3c0.01-1.4,0.36-2.45,1.39-3.44c2.58-2.47,5.04-5.06,7.56-7.59c0.64-0.64,0.83-0.63,1.5,0.02
		c2.37,2.31,4.73,4.63,7.09,6.95c4.6,4.52,9.17,9.07,13.8,13.55c1.01,0.98,1.48,1.97,1.48,3.41c0.01,15.07,0.08,30.13,0.14,45.2
		c0,0.35,0.01,0.7-0.01,1.04c-0.05,1-0.21,1.16-1.27,1.21c-0.7,0.03-1.39,0.02-2.09,0.02c-14.12,0.04-28.23,0.08-42.35,0.12
		c-0.61,0-1.22,0.04-1.83,0c-0.85-0.06-1.51,0.23-2.07,0.87c-0.46,0.52-0.98,0.99-1.47,1.48c-10,9.96-19.99,19.93-29.99,29.89
		c-0.49,0.49-0.99,0.98-1.49,1.47c-0.47,0.47-0.91,0.38-1.34-0.06c-0.49-0.5-0.99-0.98-1.49-1.47c-9.9-9.81-19.8-19.63-29.7-29.44
		c-0.43-0.43-0.91-0.82-1.29-1.29c-0.67-0.83-1.51-1.03-2.54-1.04c-3.66-0.02-7.32-0.12-10.98-0.15
		c-11.07-0.08-22.13-0.15-33.2-0.22c-0.78-0.01-1.57-0.02-2.35-0.04c-0.51-0.02-0.79-0.33-0.81-0.82c-0.03-0.78-0.03-1.57-0.03-2.35
		c0-14.28,0.01-28.57,0.02-42.85c0-0.44-0.05-0.88,0.01-1.31c0.2-1.51-0.41-2.58-1.5-3.64c-10.21-9.99-20.38-20.03-30.55-30.06
		c-0.68-0.67-1.34-1.36-2.05-2.09c0.3-0.93,1.04-1.42,1.63-2.02c9.98-10.22,19.97-20.44,29.95-30.66c0.3-0.31,0.58-0.66,0.92-0.93
		c0.96-0.77,1.23-1.76,1.24-2.98c0.01-6.27,0.12-12.54,0.16-18.81c0.06-8.27,0.09-16.55,0.13-24.82c0-0.7-0.01-1.39,0.02-2.09
		c0.04-1,0.2-1.15,1.28-1.18c0.7-0.02,1.39-0.01,2.09,0c14.55,0.11,29.1,0.25,43.66,0.3c1.61,0.01,2.83,0.44,3.95,1.56
		c3.45,3.45,6.97,6.82,10.42,10.28c3.2,3.21,6.33,6.49,9.48,9.74c0.3,0.31,0.57,0.64,0.78,0.87c0.08,0.77-0.44,1.04-0.8,1.38
		c-2.53,2.39-5.11,4.74-7.61,7.17c-0.87,0.85-1.79,1.21-3,1.22c-8.19,0.09-16.38,0.24-24.57,0.38c-3.14,0.05-3.02-0.39-3.01,2.92
		c0.02,8.01,0.03,16.02,0.05,24.04c0,0.17-0.02,0.35,0,0.52c0.17,1.4-0.36,2.44-1.37,3.46c-5.68,5.77-11.3,11.61-16.93,17.43
		c-0.6,0.62-1.18,1.27-1.76,1.89c0.37,1.03,1.16,1.62,1.8,2.3c5.47,5.86,10.93,11.72,16.47,17.52c1.15,1.21,1.7,2.42,1.7,4.13
		c0.01,7.84,0.16,15.68,0.25,23.51c0.01,0.44,0,0.87,0.02,1.31c0.06,0.97,0.24,1.16,1.3,1.17c3.22,0.02,6.45,0,9.67,0
		c5.49-0.01,10.98,0.03,16.47-0.05c1.42-0.02,2.44,0.39,3.45,1.39c5.94,5.89,11.94,11.71,17.92,17.56
		C116.26,276.59,116.79,277.04,117.68,277.86z"/>
	<path class="st0" d="M577.92,307.74c0.78-0.03,1.03-0.53,1.36-0.89c1.84-1.97,3.73-3.9,5.47-5.96c1-1.18,2.11-1.7,3.62-1.53
		c0.69,0.08,1.39,0.01,2.09,0.02c0.25,0,0.54-0.03,0.68,0.25c0.13,0.27-0.01,0.48-0.19,0.67c-0.91,0.94-1.81,1.88-2.72,2.81
		c-1.03,1.06-2.07,2.11-3.09,3.18c-1.1,1.15-1.12,1.18-0.33,2.41c2.17,3.36,4.36,6.71,6.55,10.06c0.19,0.28,0.34,0.61,0.87,0.7
		c0.62-0.15,0.59-0.87,0.79-1.38c2.16-5.5,4.28-11.02,6.44-16.52c0.87-2.2,0.51-2.21,3.15-2.2c0.35,0,0.7,0.02,1.04,0.01
		c0.82-0.03,1.3,0.38,1.53,1.13c0.05,0.17,0.13,0.32,0.19,0.48c2.33,5.81,4.66,11.61,6.99,17.43c0.19,0.47,0.44,0.94,0.29,1.67
		c-1.11,0-2.23,0-3.35,0c-0.61,0-0.93-0.35-1.12-0.89c-0.33-0.9-0.69-1.78-1.03-2.68c-0.27-0.71-0.67-1.15-1.52-1.14
		c-2.09,0.04-4.18,0.02-6.27,0.01c-0.59,0-0.99,0.24-1.2,0.79c-0.4,1.05-0.8,2.11-1.21,3.16c-0.17,0.44-0.48,0.7-0.97,0.72
		c-0.26,0.01-0.52,0.02-0.78,0.02c-2.34,0-4.68-0.03-7.02,0.02c-0.98,0.02-1.61-0.3-2.1-1.17c-1.23-2.2-2.53-4.36-3.83-6.53
		c-0.35-0.58-0.55-1.3-1.37-1.58c-1.03,0.61-1.71,1.65-2.58,2.47c-0.49,0.46-0.53,1.07-0.53,1.69c-0.01,1.3,0.01,2.61-0.02,3.91
		c-0.03,0.98-0.24,1.18-1.29,1.18c-3.18,0-2.96,0.36-2.97-2.91c0-5.05,0-10.09,0-15.14c0-0.61,0-1.22,0.04-1.82
		c0.03-0.5,0.36-0.76,0.84-0.82c0.17-0.02,0.35-0.02,0.52-0.02c3.09-0.01,2.87-0.21,2.87,2.77c0,1.48-0.01,2.96,0.01,4.44
		C577.78,306.98,577.87,307.37,577.92,307.74z M600,311.56c2.45,0.46,3.56,0.42,5.01-0.18c-1-3.59-1.62-5.07-2.76-6.47
		C601.49,307.21,600.46,309.28,600,311.56z"/>
	<path class="st0" d="M511.43,306.39c0,2.43,0,4.86,0,7.29c0,1.74,0.01,3.48-0.02,5.22c-0.02,0.97-0.25,1.19-1.28,1.19
		c-2.73,0.02-2.68,0.23-2.67-2.43c0.01-5.31,0-10.62,0-15.92c0-0.43,0.01-0.87,0.01-1.31c0-0.61,0.29-1.01,0.91-1.03
		c1.48-0.03,2.96-0.02,4.44-0.02c0.73,0,1.09,0.43,1.26,1.08c0.37,1.43,0.75,2.86,1.12,4.29c0.53,2.02,1.05,4.04,1.6,6.05
		c0.16,0.57,0.4,1.12,0.74,2.08c0.36-1.19,0.62-1.97,0.83-2.76c0.85-3.19,1.67-6.39,2.53-9.58c0.29-1.07,0.38-1.14,1.42-1.16
		c1.39-0.03,2.79-0.01,4.18,0.01c0.62,0.01,0.95,0.36,0.98,0.98c0.02,0.43,0.02,0.87,0.02,1.3c0,5.39,0.01,10.79-0.01,16.18
		c0,0.68,0.14,1.4-0.3,2.06c-0.23,0.05-0.48,0.15-0.73,0.16c-3.13,0.03-2.86,0.26-2.87-2.73c-0.01-3.22,0-6.44-0.01-9.66
		c0-0.47-0.04-0.94-0.08-1.87c-0.67,0.96-0.82,1.61-0.98,2.27c-0.87,3.55-1.75,7.09-2.65,10.63c-0.33,1.29-0.42,1.34-1.79,1.37
		c-0.44,0.01-0.87,0.01-1.31,0c-1.22-0.04-1.3-0.07-1.6-1.24c-0.87-3.37-1.71-6.74-2.54-10.12c-0.2-0.83-0.48-1.62-0.65-2.45
		C511.78,306.33,511.6,306.36,511.43,306.39z"/>
	<path class="st0" d="M717.36,311.1c2.75,2.31,4.19,5.2,5.89,7.91c0.37,0.59,0.13,1.02-0.51,1.07c-3.6,0.3-3.59,0.29-5.66-2.78
		c-0.97-1.44-1.96-2.87-2.98-4.27c-0.58-0.79-1.34-1.34-2.38-1.42c-2.01-0.16-2.15,0-2.14,1.86c0.01,1.83,0.02,3.65-0.02,5.48
		c-0.02,0.92-0.21,1.14-1.05,1.14c-3.47,0.02-3.19,0.42-3.19-2.92c-0.01-4.95,0-9.91,0-14.86c0-0.69,0.01-1.39,0.06-2.08
		c0.04-0.49,0.38-0.8,0.86-0.8c1.74-0.03,3.48-0.03,5.22-0.04c2-0.01,3.99,0.05,5.99,0.24c4.43,0.42,5.9,5.29,4.18,8.5
		c-0.46,0.86-1.14,1.54-2.01,1.99C718.98,310.41,718.34,310.66,717.36,311.1z M713.29,308.13c0.45-0.02,1.51,0.02,2.53-0.14
		c1.91-0.29,2.78-2.39,1.7-3.96c-0.54-0.78-1.36-1.06-2.25-1.1c-1.3-0.06-2.6-0.06-3.89-0.04c-1.69,0.02-1.75,0.09-1.8,1.74
		c0,0.09,0,0.17,0,0.26C709.63,308.49,709.15,308.11,713.29,308.13z"/>
	<path class="st0" d="M564.87,311.23c2.45,2.31,4.15,5.2,5.76,8.16c0.06,0.12-0.04,0.33-0.06,0.49c-0.15,0.06-0.31,0.18-0.46,0.18
		c-1.3,0-2.75,0.44-3.85-0.21c-0.89-0.53-1.37-1.75-2.02-2.67c-0.95-1.35-1.88-2.72-2.82-4.07c-0.89-1.28-2.16-1.66-3.65-1.55
		c-0.61,0.05-0.95,0.37-0.96,0.99c-0.02,1.3-0.02,2.61-0.03,3.91c0,0.78,0.02,1.57-0.01,2.35c-0.04,1.07-0.21,1.23-1.18,1.28
		c-0.43,0.02-0.87,0.01-1.3,0.01c-1.66-0.03-1.75-0.09-1.76-1.78c-0.02-5.74-0.02-11.48,0-17.22c0-1.62,0.09-1.71,1.56-1.72
		c2.7-0.02,5.39-0.02,8.09,0.02c0.87,0.01,1.74,0.11,2.6,0.24c2.63,0.4,4.25,1.98,4.7,4.53c0.46,2.59-0.67,4.87-2.96,6.11
		C565.99,310.57,565.29,310.48,564.87,311.23z M560.05,308.08c0,0.03,0,0.06,0,0.08c0.96-0.04,1.92-0.03,2.87-0.14
		c1.4-0.17,2.23-1.09,2.29-2.42c0.06-1.26-0.76-2.35-2.1-2.59c-0.85-0.15-1.73-0.14-2.6-0.13c-4.3,0.05-3.76-0.67-3.77,3.97
		c0,0.17,0.02,0.35,0.05,0.52c0.06,0.38,0.29,0.66,0.67,0.68C558.31,308.1,559.18,308.08,560.05,308.08z"/>
	<path class="st0" d="M627.47,312.02c0.5-0.41,0.33-0.96,0.33-1.44c0.02-2.87,0.01-5.74,0.01-8.61c0-0.61,0.01-1.22,0.05-1.82
		c0.03-0.38,0.27-0.66,0.65-0.69c0.69-0.06,1.39-0.09,2.08-0.06c0.95,0.03,1.17,0.26,1.17,1.3c0.01,6,0.01,12,0,18
		c0,0.26,0.02,0.54-0.07,0.77c-0.09,0.21-0.29,0.42-0.5,0.52c-0.22,0.11-0.51,0.11-0.76,0.11c-3.46-0.03-2.63,0.37-4.32-2.3
		c-1.81-2.87-3.56-5.77-5.35-8.65c-0.32-0.51-0.67-0.99-1-1.46c-0.71,0.13-0.56,0.64-0.56,1.03c-0.02,2.96-0.01,5.91-0.01,8.87
		c0,0.61-0.01,1.22-0.06,1.82c-0.03,0.38-0.32,0.58-0.69,0.66c-0.08,0.02-0.17,0.03-0.26,0.03c-3.14,0.04-2.95,0.28-2.95-2.66
		c0-5.13,0-10.26,0-15.39c0-0.61,0-1.22,0.03-1.82c0.03-0.51,0.39-0.73,0.85-0.81c0.09-0.01,0.17-0.01,0.26-0.02
		c2.81-0.21,2.84-0.2,4.35,2.27c1.86,3.04,3.72,6.08,5.6,9.11C626.63,311.24,626.8,311.88,627.47,312.02z"/>
	<path class="st0" d="M636.13,309.58c0-2.96-0.01-5.92,0.01-8.88c0.01-1.04,0.23-1.3,1.18-1.3c2.79,0,5.58,0.01,8.36,0.11
		c4.53,0.15,6.75,3.36,7.48,6.79c0.48,2.23,0.54,4.51,0.06,6.75c-0.83,3.9-3.12,6.92-8.13,7.03c-2.61,0.06-5.23,0.03-7.84,0.01
		c-0.84-0.01-1.05-0.26-1.11-1.1c-0.01-0.17-0.01-0.35-0.01-0.52C636.13,315.5,636.13,312.54,636.13,309.58z M640.34,309.73
		c-0.01,0-0.01,0-0.02,0c0,0.95-0.01,1.91,0,2.86c0.08,4.58-0.74,3.98,4.26,3.95c0.26,0,0.52-0.04,0.78-0.06
		c1.65-0.13,2.71-0.99,3.26-2.55c0.36-1,0.52-2.02,0.5-3.06c-0.02-1.3,0.04-2.62-0.16-3.89c-0.39-2.45-1.7-3.7-4.12-3.99
		c-1.11-0.14-2.25-0.1-3.38-0.08c-0.85,0.01-1.11,0.25-1.12,1.09C640.32,305.91,640.34,307.82,640.34,309.73z"/>
	<path class="st0" d="M745.45,309.82c-0.04,0.75-0.05,1.36-0.11,1.96c-0.46,4.73-3.64,8.04-8.34,8.66
		c-1.84,0.24-3.66,0.08-5.41-0.54c-2.81-1-4.7-2.96-5.6-5.79c-0.87-2.72-0.87-5.5-0.11-8.24c1.14-4.11,4.31-6.58,8.58-6.77
		c1.31-0.06,2.62-0.07,3.9,0.26c3.76,0.97,6.39,3.99,6.92,7.98C745.4,308.21,745.41,309.08,745.45,309.82z M741.13,309.87
		c0.07-1.29-0.07-2.58-0.56-3.81c-0.85-2.17-2.64-3.35-5.06-3.37c-2.45-0.02-4.31,1.08-5.16,3.23c-1,2.52-0.99,5.11,0.01,7.62
		c0.88,2.21,3,3.47,5.38,3.35c2.28-0.11,4.07-1.46,4.88-3.68C741.01,312.15,741.2,311.04,741.13,309.87z"/>
	<path class="st0" d="M665.13,309.8c0-3.05-0.02-6.09,0.01-9.14c0.01-1.07,0.19-1.26,1.21-1.27c4.27-0.02,8.54-0.02,12.81,0
		c1.14,0.01,1.29,0.21,1.31,1.43c0.01,0.43-0.01,0.87-0.04,1.3c-0.03,0.39-0.25,0.66-0.63,0.69c-0.61,0.05-1.22,0.07-1.82,0.07
		c-2.44,0.01-4.88-0.01-7.32,0.02c-1.02,0.01-1.2,0.22-1.27,1.22c-0.01,0.09-0.01,0.17-0.01,0.26c0.02,3.48-0.35,3.11,3.01,3.13
		c2.09,0.01,4.18,0.01,6.27,0.01c0.61,0,0.98,0.28,1.04,0.91c0.01,0.09,0.01,0.17,0.01,0.26c0.07,2.51-0.07,2.38-2.21,2.38
		c-2.27-0.01-4.53-0.02-6.8,0.01c-1.18,0.01-1.29,0.15-1.32,1.4c-0.02,1.04,0,2.09,0.02,3.13c0.01,0.64,0.38,0.94,0.99,0.94
		c2.35,0.01,4.7,0.02,7.06,0.02c0.44,0,0.87-0.02,1.31,0c0.68,0.04,1.56-0.27,1.95,0.39c0.45,0.75,0.26,1.7,0.1,2.55
		c-0.03,0.19-0.32,0.43-0.53,0.47c-0.42,0.1-0.86,0.1-1.3,0.1c-4.01,0.01-8.02,0.01-12.02,0c-1.8-0.01-1.82-0.03-1.83-1.94
		C665.11,315.38,665.12,312.59,665.13,309.8C665.12,309.8,665.13,309.8,665.13,309.8z"/>
	<path class="st0" d="M849.47,309.78c0-2.7,0-5.4,0-8.1c0-0.52,0.01-1.04,0.06-1.56c0.04-0.38,0.3-0.61,0.67-0.67
		c0.26-0.04,0.52-0.07,0.78-0.07c4.18,0,8.36-0.01,12.54,0.01c1.17,0.01,1.35,0.22,1.37,1.39c0.01,0.43-0.01,0.87-0.04,1.3
		c-0.04,0.52-0.38,0.76-0.86,0.78c-0.7,0.03-1.39,0.02-2.09,0.03c-2.26,0.01-4.53-0.02-6.79,0.02c-1.11,0.02-1.37,0.28-1.38,1.41
		c-0.02,3.41-0.34,3.19,2.98,3.2c2.09,0,4.18-0.01,6.27,0.02c0.84,0.01,1.03,0.25,1.06,1.12c0.02,0.52,0.02,1.05-0.02,1.57
		c-0.03,0.5-0.33,0.8-0.84,0.81c-2.09,0.02-4.18,0.03-6.27,0.04c-3.64,0.02-3.15-0.28-3.2,3.24c0,0.35,0,0.7,0.02,1.04
		c0.06,0.95,0.27,1.19,1.3,1.21c2.44,0.04,4.88,0.02,7.32,0.03c0.7,0,1.4-0.01,2.09,0.05c0.22,0.02,0.56,0.19,0.62,0.37
		c0.3,0.92,0.35,1.87-0.03,2.78c-0.07,0.17-0.42,0.28-0.65,0.3c-0.61,0.05-1.22,0.03-1.83,0.03c-3.4,0-6.79,0-10.19,0
		c-3.19,0-2.87,0.23-2.88-3.01C849.47,314.65,849.47,312.21,849.47,309.78z"/>
	<path class="st0" d="M474.73,299.09c1.4-0.05,2.88,0.1,4.23,0.76c1.92,0.94,3.15,2.42,3.36,4.62c0.05,0.49-0.13,0.85-0.67,0.91
		c-0.43,0.04-0.87,0.02-1.3,0.07c-1.21,0.14-2.2,0.03-2.63-1.41c-0.24-0.78-1-1.15-1.82-1.32c-1.22-0.26-2.43-0.22-3.59,0.24
		c-0.69,0.27-1.17,0.77-1.17,1.57c0,0.66,0.31,1.2,0.9,1.48c0.7,0.33,1.43,0.63,2.17,0.87c0.83,0.26,1.69,0.4,2.52,0.66
		c0.99,0.31,1.99,0.62,2.94,1.05c2.31,1.04,3.42,2.94,3.42,5.4c0,2.54-1.12,4.59-3.52,5.62c-3.09,1.32-6.28,1.38-9.37,0
		c-2.35-1.05-3.47-3.07-3.8-5.54c-0.05-0.36,0.2-0.66,0.61-0.7c0.61-0.06,1.21-0.12,1.82-0.16c1.29-0.09,1.29-0.09,1.91,1.15
		c1.26,2.51,4.19,3.43,6.61,2.08c0.63-0.35,1.11-0.83,1.34-1.53c0.33-0.99,0.02-1.98-0.89-2.46c-0.61-0.32-1.28-0.54-1.94-0.74
		c-1.16-0.35-2.36-0.62-3.51-0.99c-0.82-0.27-1.65-0.58-2.4-1c-2.1-1.18-3.1-3.01-2.85-5.42c0.24-2.29,1.58-3.78,3.7-4.62
		C472.03,299.16,473.32,299.07,474.73,299.09z"/>
	<path class="st0" d="M783.69,299.08c1.58-0.01,2.87,0.09,4.11,0.58c1.63,0.64,2.86,1.71,3.46,3.35c0.83,2.29,0.67,2.42-1.59,2.43
		c-0.35,0-0.7,0.01-1.05,0.02c-0.56,0.02-1.04-0.12-1.26-0.7c-0.36-0.93-0.88-1.7-1.91-1.98c-1.3-0.35-2.6-0.32-3.85,0.16
		c-0.66,0.26-1.2,0.73-1.23,1.54c-0.03,0.81,0.44,1.33,1.11,1.61c0.88,0.37,1.8,0.64,2.71,0.93c1.49,0.48,3.04,0.8,4.47,1.42
		c3.35,1.44,4.64,4.99,3.11,8.26c-0.74,1.59-1.98,2.66-3.62,3.2c-2.64,0.86-5.33,0.92-7.96,0c-2.63-0.92-4.04-2.91-4.51-5.6
		c-0.08-0.47,0.09-0.87,0.63-0.95c0.6-0.08,1.22-0.07,1.82-0.18c1.04-0.2,1.47,0.23,1.9,1.2c1.11,2.48,3.94,3.33,6.4,2.14
		c0.66-0.32,1.14-0.78,1.46-1.43c0.47-0.95,0.26-1.96-0.63-2.53c-0.58-0.36-1.25-0.61-1.91-0.82c-1.16-0.36-2.36-0.61-3.52-0.98
		c-0.91-0.29-1.83-0.61-2.65-1.08c-2-1.12-3.04-2.9-2.88-5.17c0.16-2.27,1.42-3.87,3.54-4.77
		C781.16,299.17,782.54,299.05,783.69,299.08z"/>
	<path class="st0" d="M931.52,309.71c0-2.87-0.01-5.74,0.01-8.61c0.01-1.6,0.1-1.71,1.55-1.72c4.17-0.02,8.35-0.02,12.53,0
		c1.02,0,1.22,0.24,1.27,1.22c0.01,0.17,0.01,0.35,0.01,0.52c0.01,1.64-0.07,1.73-1.76,1.75c-2.17,0.02-4.35,0-6.52,0.01
		c-0.61,0-1.22,0-1.83,0.02c-0.6,0.02-0.98,0.29-1.03,0.93c-0.01,0.09-0.01,0.17-0.01,0.26c0.01,3.85-0.47,3.38,3.23,3.42
		c2.09,0.02,4.17,0.01,6.26,0.03c0.48,0.01,0.83,0.26,0.85,0.78c0.03,0.61,0.03,1.22,0.01,1.82c-0.02,0.64-0.44,0.9-1.03,0.9
		c-2.44,0.01-4.87,0-7.31,0.02c-2,0.02-2.04,0.03-2.02,2.02c0.03,3.9-0.52,3.46,3.45,3.49c2.35,0.02,4.7,0.01,7.05,0.02
		c0.6,0,0.97,0.3,1.01,0.93c0.01,0.09,0.01,0.17,0.02,0.26c0.12,2.24,0.07,2.31-2.23,2.31c-3.74,0.01-7.48,0.01-11.22,0
		c-0.52,0-1.04-0.02-1.56-0.07c-0.39-0.04-0.63-0.28-0.65-0.68c-0.03-0.61-0.05-1.21-0.05-1.82
		C931.51,314.92,931.52,312.32,931.52,309.71z"/>
	<path class="st0" d="M700.84,307.39c0,2,0.03,4-0.01,6c-0.1,5.09-3.15,6.92-7.25,7.12c-1.39,0.07-2.78,0.01-4.14-0.37
		c-2.79-0.78-4.44-2.64-4.79-5.52c-0.09-0.78-0.18-1.56-0.19-2.34c-0.03-3.83-0.05-7.65-0.04-11.48c0-1.18,0.22-1.39,1.35-1.41
		c3.12-0.05,2.9-0.1,2.9,2.76c0,2.87,0,5.74,0.01,8.61c0,0.78,0,1.57,0.05,2.35c0.17,2.52,1.53,3.78,4.02,3.79
		c2.44,0.01,3.75-1.13,3.87-3.59c0.11-2.34,0.06-4.7,0.07-7.04c0.01-1.48-0.04-2.96,0.02-4.44c0.03-0.75-0.4-1.75,0.37-2.18
		c1-0.57,2.2-0.32,3.31-0.13c0.18,0.03,0.39,0.36,0.43,0.57c0.08,0.42,0.07,0.86,0.07,1.3c0.01,2,0,4,0,6
		C700.87,307.39,700.85,307.39,700.84,307.39z"/>
	<path class="st0" d="M753.92,319.91c-0.03-0.81,0.31-1.43,0.56-2.07c2.1-5.43,4.22-10.86,6.33-16.28c0.06-0.16,0.14-0.32,0.18-0.49
		c0.31-1.3,1.12-1.88,2.46-1.69c0.17,0.02,0.35,0,0.52,0c2.09,0.01,2.05-0.16,2.86,1.87c2.23,5.57,4.47,11.13,6.68,16.71
		c0.22,0.55,0.6,1.07,0.5,1.72c-1.06,0.37-2.95,0.55-3.71,0.37c-0.39-0.09-0.59-0.37-0.72-0.68c-0.4-0.96-0.8-1.93-1.13-2.92
		c-0.26-0.8-0.78-1.06-1.57-1.05c-2,0.02-4,0.02-6.01,0c-0.83-0.01-1.26,0.37-1.51,1.14c-0.28,0.91-0.66,1.8-0.99,2.69
		c-0.16,0.43-0.4,0.81-0.9,0.82C756.29,320.09,755.09,320.28,753.92,319.91z M763.91,304.45c-1.16,2.69-2.05,4.82-2.56,7.16
		c1.55,0.4,2.94,0.24,4.32,0.2c0.48-0.01,0.75-0.43,0.58-0.92C765.56,308.93,764.84,306.98,763.91,304.45z"/>
	<path class="st0" d="M822.17,319.87c-0.25,0.11-0.33,0.18-0.41,0.18c-1.13,0.05-2.36,0.35-3.35-0.13
		c-1.07-0.52-0.97-1.95-1.49-2.93c-0.12-0.23-0.22-0.48-0.3-0.72c-0.19-0.54-0.52-0.87-1.14-0.87c-2.18,0.01-4.36,0.01-6.53,0
		c-0.61,0-0.99,0.3-1.2,0.82c-0.42,1.05-0.82,2.11-1.21,3.17c-0.17,0.48-0.52,0.68-0.99,0.68c-3.77,0.04-3.87,0.45-2.51-3.06
		c2.01-5.19,4.04-10.38,6.06-15.56c0.16-0.41,0.33-0.8,0.47-1.22c0.2-0.56,0.6-0.8,1.17-0.86c3.32-0.34,3.47-0.25,4.75,2.93
		c2.01,5,4.04,10,6.02,15.02C821.83,318.11,822.38,318.86,822.17,319.87z M814.58,311.68c-0.49-2.55-1.59-5.33-2.71-6.78
		c-0.74,2.03-1.46,3.97-2.16,5.92c-0.08,0.22-0.01,0.5-0.01,0.99C811.35,311.81,812.96,312.03,814.58,311.68z"/>
	<path class="st0" d="M550.01,319.8c-0.36,0.36-0.8,0.31-1.22,0.3c-3.57-0.05-2.78,0.46-4.03-2.74c-0.87-2.2-0.76-1.95-2.77-1.96
		c-1.74-0.01-3.48,0.01-5.22,0c-0.7-0.01-1.13,0.27-1.37,0.94c-0.34,0.98-0.72,1.96-1.1,2.93c-0.21,0.53-0.57,0.84-1.18,0.83
		c-1.03-0.01-2.07,0-2.98,0c-0.38-0.61-0.19-1.01-0.04-1.4c2.3-5.91,4.62-11.82,6.86-17.75c0.44-1.18,1.07-1.61,2.3-1.58
		c3.14,0.08,2.65-0.2,3.74,2.52c2.05,5.08,4.1,10.15,6.13,15.24C549.49,317.99,549.98,318.83,550.01,319.8z M539.79,311.83
		c0.61,0,1.21,0.02,1.82-0.01c0.57-0.03,0.84-0.35,0.67-0.82c-0.67-1.87-1.37-3.73-2.08-5.59c-0.05-0.12-0.24-0.25-0.38-0.26
		c-0.13-0.01-0.35,0.1-0.39,0.22c-0.5,1.29-1,2.58-1.47,3.88C537.01,311.88,536.75,311.88,539.79,311.83z"/>
	<path class="st0" d="M505.14,319.81c-0.36,0.16-0.43,0.23-0.52,0.23c-1.21,0.06-2.54,0.41-3.59-0.15
		c-1.01-0.54-0.97-1.95-1.46-2.95c-0.11-0.23-0.18-0.49-0.29-0.73c-0.23-0.51-0.59-0.82-1.2-0.81c-2.17,0.02-4.35,0.01-6.52,0
		c-0.62,0-0.96,0.33-1.16,0.86c-0.34,0.89-0.66,1.79-0.99,2.69c-0.25,0.7-0.63,1.17-1.49,1.16c-3.49-0.05-3.56,0.41-2.2-3.08
		c2.03-5.18,4.02-10.37,6.03-15.55c0.16-0.41,0.33-0.8,0.49-1.21c0.21-0.54,0.59-0.81,1.17-0.88c3.2-0.4,3.5-0.22,4.75,2.9
		c2.1,5.24,4.21,10.48,6.3,15.73C504.69,318.58,504.89,319.14,505.14,319.81z M492.27,311.48c0.62,0.51,1.24,0.38,1.83,0.37
		c3.85-0.01,3.67,0.37,2.33-3.13c-0.37-0.97-0.72-1.95-1.09-2.92c-0.12-0.32-0.2-0.67-0.8-0.7
		C493.65,307.16,492.83,309.29,492.27,311.48z"/>
	<path class="st0" d="M876.34,313.22c-1.35,2.03-2.53,3.64-3.53,5.37c-0.71,1.23-1.62,1.71-2.99,1.53c-0.83-0.11-1.7,0.12-2.49-0.17
		c-0.21-0.8,0.32-1.22,0.64-1.71c1.66-2.55,3.32-5.1,5.05-7.61c0.63-0.92,0.67-1.64,0.02-2.58c-1.72-2.51-3.35-5.08-5.01-7.64
		c-0.4-0.61-0.2-0.97,0.51-1.02c0.09-0.01,0.17-0.01,0.26-0.01c4.16,0.05,3.05-0.48,5.22,2.68c0.73,1.07,1.46,2.15,2.24,3.29
		c1.12-1.08,1.72-2.35,2.52-3.48c0.4-0.57,0.78-1.15,1.16-1.73c0.31-0.46,0.71-0.75,1.29-0.75c1.04,0.01,2.09,0.01,3.13,0.04
		c0.37,0.01,0.62,0.44,0.43,0.74c-0.5,0.82-1.02,1.62-1.54,2.42c-1.23,1.9-2.45,3.8-3.72,5.67c-0.51,0.75-0.52,1.36,0,2.12
		c1.66,2.45,3.27,4.93,4.89,7.4c0.33,0.51,0.67,1.02,0.93,1.56c0.19,0.38-0.03,0.64-0.44,0.72c-0.08,0.02-0.17,0.01-0.26,0.02
		c-3.61,0.23-3.6,0.23-5.63-2.85C878.23,316.01,877.4,314.8,876.34,313.22z"/>
	<path class="st0" d="M840.44,319.89c-0.08,0.04-0.16,0.1-0.24,0.1c-4.42,0.27-3.7,0.41-3.74-3.32c-0.04-3.83-0.01-7.66-0.01-11.49
		c0-0.44,0-0.87-0.03-1.3c-0.04-0.6-0.34-0.96-0.97-0.97c-1.13-0.01-2.26,0-3.4-0.02c-1.63-0.03-1.71-0.12-1.69-1.82
		c0-0.26,0-0.52,0.03-0.78c0.05-0.48,0.28-0.81,0.79-0.86c0.35-0.03,0.7-0.04,1.04-0.04c4.18,0,8.36,0,12.54,0
		c0.43,0,0.87,0.01,1.3,0.07c0.38,0.04,0.64,0.3,0.68,0.67c0.05,0.52,0.05,1.04,0.03,1.56c-0.03,1.03-0.16,1.16-1.26,1.19
		c-1.31,0.04-2.61,0.03-3.92,0.07c-0.5,0.01-0.81,0.36-0.85,0.82c-0.07,0.69-0.05,1.39-0.05,2.09c0,4,0,8.01-0.01,12.01
		C840.68,318.54,840.82,319.25,840.44,319.89z"/>
	<path class="st0" d="M892.78,311.44c0-2.43,0.02-4.87-0.01-7.3c-0.01-1.01-0.22-1.2-1.25-1.23c-1.3-0.04-2.61-0.02-3.91-0.04
		c-0.6-0.01-0.97-0.3-0.98-0.95c0-0.35-0.02-0.7-0.01-1.04c0.02-1.3,0.16-1.47,1.53-1.48c4.52-0.02,9.05-0.01,13.57,0
		c0.26,0,0.53,0.01,0.77,0.08c0.8,0.24,0.67,0.94,0.63,1.51c-0.04,0.64,0.31,1.47-0.58,1.8c-0.39,0.14-0.86,0.1-1.29,0.11
		c-1.13,0.03-2.26,0.02-3.39,0.05c-0.49,0.02-0.8,0.33-0.83,0.82c-0.04,0.69-0.05,1.39-0.05,2.08c0,4,0,8,0,12
		c0,0.52-0.02,1.04-0.06,1.56c-0.03,0.39-0.29,0.6-0.67,0.66c-0.09,0.01-0.17,0.04-0.26,0.04c-3.54,0.02-3.18,0.4-3.2-2.91
		c-0.01-1.91,0-3.82,0-5.74C892.78,311.44,892.78,311.44,892.78,311.44z"/>
	<path class="st0" d="M913.93,309.81c0-2.87-0.02-5.73,0.01-8.6c0.01-1.49,0.12-1.58,1.68-1.59c2.64-0.01,2.6-0.24,2.59,2.5
		c0,3.74,0,7.47,0,11.21c0,0.69-0.01,1.39,0.02,2.08c0.04,0.85,0.27,1.09,1.08,1.14c0.61,0.04,1.22,0.02,1.82,0.03
		c1.83,0,3.65-0.01,5.48,0.01c0.58,0.01,1.34-0.24,1.69,0.35c0.5,0.86,0.33,1.84,0.1,2.77c-0.03,0.13-0.23,0.28-0.37,0.3
		c-0.43,0.06-0.86,0.09-1.29,0.09c-3.56,0.01-7.13,0.01-10.69,0c-2.08-0.01-2.09-0.02-2.1-2.22
		C913.91,315.19,913.92,312.5,913.93,309.81C913.92,309.81,913.92,309.81,913.93,309.81z"/>
	<path class="st0" d="M800.01,309.6c0,3.13,0.01,6.25-0.01,9.38c-0.01,0.93-0.18,1.13-1.04,1.14c-3.62,0.03-3.2,0.39-3.21-2.88
		c-0.02-5.12-0.01-10.25,0-15.37c0-0.61,0.01-1.22,0.09-1.82c0.03-0.2,0.27-0.41,0.46-0.55c0.12-0.09,0.33-0.1,0.5-0.11
		c3.5-0.03,3.22-0.36,3.22,2.92C800.02,304.74,800.01,307.17,800.01,309.6C800.01,309.6,800.01,309.6,800.01,309.6z"/>
	<path class="st0" d="M905.96,319.94c-0.41-0.59-0.3-1.21-0.3-1.81c-0.01-5.57-0.01-11.15,0-16.72c0-0.43,0.02-0.87,0.06-1.3
		c0.04-0.39,0.31-0.65,0.68-0.67c0.87-0.05,1.74-0.06,2.61-0.03c0.47,0.02,0.82,0.28,0.86,0.79c0.03,0.43,0.04,0.87,0.04,1.3
		c0,5.49,0,10.97,0,16.46c0,0.43-0.02,0.87-0.04,1.3c-0.03,0.52-0.36,0.79-0.84,0.8C907.99,320.09,906.94,320.24,905.96,319.94z"/>
</g>
</svg>
